<svg id="Layer_1" data-name="Layer 1" xmlns="http://www.w3.org/2000/svg" viewBox="0 0 121 121"><defs><style>.cls-1{fill:#001f3f;}.cls-2{fill:red;}</style></defs><title>refsharp</title><path class="cls-1" d="M124.5,64A109.94,109.94,0,0,1,64,124.5,109.94,109.94,0,0,1,3.5,64,109.94,109.94,0,0,1,64,3.5,109.94,109.94,0,0,1,124.5,64Z" transform="translate(-3.5 -3.5)"/><path class="cls-2" d="M49.4,68.21H38.88L34.45,82.44H32.13l4.43-14.22H31.2L31.87,66h5.42L40.8,54.59H35.17l.66-2.32h5.69l4-12.83h2.25l-4,12.83H54.36l4-12.83h2.25l-4,12.83H62l-.6,2.32H55.88L52.37,66h5.69l-.66,2.25H51.64L47.28,82.44H45Zm4.23-13.63H43.11L39.54,66H50.06Z" transform="translate(-3.5 -3.5)"/><path class="cls-2" d="M79.69,50.69H82l-1.65,9.39h.27c3.7-5.23,8.93-10.19,14.88-10.19A11.08,11.08,0,0,1,102,51.68L100.66,54a9,9,0,0,0-5.56-1.52c-5.36,0-10.65,5-15.41,11.91L76.05,82.44H73.34Z" transform="translate(-3.5 -3.5)"/></svg>